<?xml version="1.0" encoding="UTF-8" standalone="no"?>
<!-- Created with Inkscape (http://www.inkscape.org/) -->

<svg
   width="965mm"
   height="179mm"
   viewBox="0 0 965 178.99999"
   version="1.1"
   id="svg5"
   inkscape:version="1.1.2 (b8e25be833, 2022-02-05)"
   sodipodi:docname="abeja_carge.svg"
   xmlns:inkscape="http://www.inkscape.org/namespaces/inkscape"
   xmlns:sodipodi="http://sodipodi.sourceforge.net/DTD/sodipodi-0.dtd"
   xmlns="http://www.w3.org/2000/svg"
   xmlns:svg="http://www.w3.org/2000/svg">
  <sodipodi:namedview
     id="namedview7"
     pagecolor="#ffffff"
     bordercolor="#666666"
     borderopacity="1.0"
     inkscape:pageshadow="2"
     inkscape:pageopacity="0"
     inkscape:pagecheckerboard="false"
     inkscape:document-units="mm"
     showgrid="false"
     showguides="true"
     inkscape:zoom="0.22627417"
     inkscape:cx="3453.7747"
     inkscape:cy="238.64854"
     inkscape:window-width="1366"
     inkscape:window-height="705"
     inkscape:window-x="-8"
     inkscape:window-y="-8"
     inkscape:window-maximized="1"
     inkscape:current-layer="layer1"
     width="751mm" />
  <defs
     id="defs2" />
  <g
     inkscape:label="Capa 1"
     inkscape:groupmode="layer"
     id="layer1">
    <g
       id="g103139"
       transform="matrix(1.4816928,0,0,1.4713298,-97.918239,-171.24453)">
      <path
         style="fill:#fff45e;fill-opacity:1;stroke:none;stroke-width:0.264583px;stroke-linecap:butt;stroke-linejoin:miter;stroke-opacity:1"
         d="m 121.08999,176.52634 c -9.34074,-35.30531 -39.151289,-23.67725 -47.889442,-9.31483 -8.738153,14.36242 5.937076,51.68776 40.504672,29.85056 3.61275,27.90149 45.79871,42.36034 67.87919,19.82761 l 15.67999,-3.64181 -10.72309,-11.33006 c -4.04229,-34.65054 -47.90072,-40.30183 -65.45132,-25.39147 z"
         id="path58"
         sodipodi:nodetypes="czccccc" />
      <path
         style="fill:#413946;fill-opacity:1;stroke:none;stroke-width:0.264583px;stroke-linecap:butt;stroke-linejoin:miter;stroke-opacity:1"
         d="m 83.812077,172.85925 c 2.895808,-6.14925 11.609683,-2.11048 9.205672,4.12232 -2.404011,6.2328 -12.101479,2.02693 -9.205672,-4.12232 z"
         id="path8243"
         sodipodi:nodetypes="zzz" />
      <path
         style="fill:#fe97a4;fill-opacity:1;stroke:none;stroke-width:0.188988px;stroke-linecap:butt;stroke-linejoin:miter;stroke-opacity:1"
         d="m 79.15413,181.05553 c 1.91663,-2.49554 7.559206,-0.21766 6.246701,2.61575 -1.312505,2.83341 -8.163331,-0.12021 -6.246701,-2.61575 z"
         id="path8243-8"
         sodipodi:nodetypes="zzz" />
      <path
         style="fill:#fc989e;fill-opacity:1;stroke:none;stroke-width:0.188988px;stroke-linecap:butt;stroke-linejoin:miter;stroke-opacity:1"
         d="m 102.68431,187.46643 c 1.91663,-2.49554 7.55921,-0.21766 6.2467,2.61575 -1.3125,2.83341 -8.16333,-0.12021 -6.2467,-2.61575 z"
         id="path8243-8-8"
         sodipodi:nodetypes="zzz" />
      <path
         style="fill:#fefcfe;fill-opacity:1;stroke:none;stroke-width:0.0547358px;stroke-linecap:butt;stroke-linejoin:miter;stroke-opacity:1"
         d="m 86.328837,171.96415 c 0.599072,-1.27212 2.401759,-0.43659 1.904429,0.85281 -0.497331,1.28942 -2.503503,0.41933 -1.904429,-0.85281 z"
         id="path8243-0"
         sodipodi:nodetypes="zzz" />
      <path
         style="fill:#443945;fill-opacity:1;stroke:none;stroke-width:0.264583px;stroke-linecap:butt;stroke-linejoin:miter;stroke-opacity:1"
         d="m 99.552706,176.93494 c 2.895804,-6.14925 11.609674,-2.11048 9.205674,4.12232 -2.40401,6.2328 -12.101481,2.02693 -9.205674,-4.12232 z"
         id="path8243-1"
         sodipodi:nodetypes="zzz" />
      <path
         style="fill:#483935;fill-opacity:1;stroke:none;stroke-width:0.264583px;stroke-linecap:butt;stroke-linejoin:miter;stroke-opacity:1"
         d="m 85.462608,164.14757 c -0.294433,0.26941 0.514129,0.82669 0.676391,0.67269 2.656305,-2.43207 5.913965,-1.91645 8.855221,1.1335 0.150897,0.18255 0.949995,-0.19903 0.894147,-0.4292 -3.294169,-3.86437 -7.45312,-3.86297 -10.425759,-1.37699 z"
         id="path9707"
         sodipodi:nodetypes="ccccc" />
      <path
         style="fill:#4b3a3d;fill-opacity:1;stroke:none;stroke-width:0.264583px;stroke-linecap:butt;stroke-linejoin:miter;stroke-opacity:1"
         d="m 102.52652,167.03403 c -0.35473,0.18286 0.27956,0.93252 0.4765,0.82642 3.20076,-1.6511 6.2095,-0.29993 8.24885,3.41412 0.0978,0.21571 0.96896,0.0568 0.97537,-0.17992 -2.16655,-4.59249 -6.18056,-5.68086 -9.70072,-4.06062 z"
         id="path9707-1"
         sodipodi:nodetypes="ccccc" />
      <path
         style="fill:#483739;fill-opacity:1;stroke:none;stroke-width:0.283405px;stroke-linecap:butt;stroke-linejoin:miter;stroke-opacity:1"
         d="m 97.887916,192.37883 c 0.341496,-0.24838 -0.401194,-0.99133 -0.590225,-0.84838 -3.119149,1.25609 -6.333697,1.14928 -8.881495,-2.67691 -0.126795,-0.22495 -1.001049,0.0651 -0.978587,0.32696 2.786047,4.77796 6.987046,5.20856 10.450307,3.19833 z"
         id="path9707-1-9"
         sodipodi:nodetypes="ccccc" />
      <path
         style="fill:#46394a;fill-opacity:1;stroke:none;stroke-width:0.264583px;stroke-linecap:butt;stroke-linejoin:miter;stroke-opacity:1"
         d="m 126.54638,216.40284 c 0.12326,-0.18207 0.54229,0.17572 0.38567,0.68284 -2.113,2.1659 -3.07946,5.47411 -3.00954,9.0476 0.75719,-0.0685 1.62192,3.00696 -0.56904,3.00955 -2.19095,0.003 -2.04019,-3.01949 -0.15174,-3.14864 -0.17111,-4.26299 1.04602,-7.27546 3.34465,-9.59135 z"
         id="path15490"
         sodipodi:nodetypes="ccczcc" />
      <path
         style="fill:#46394a;fill-opacity:1;stroke:none;stroke-width:0.264583px;stroke-linecap:butt;stroke-linejoin:miter;stroke-opacity:1"
         d="m 165.53874,223.44548 c 0.0428,-0.21565 0.76467,-0.10245 0.6207,0.47932 -1.10531,2.81676 -0.6209,6.24054 0.83212,9.50604 1.13602,-0.0533 2.5735,2.1404 0.55572,2.99416 -2.01761,0.85413 -2.65976,-2.04307 -1.36332,-2.84224 -1.65323,-3.98667 -1.86329,-7.11018 -0.64522,-10.13728 z"
         id="path15490-9"
         sodipodi:nodetypes="ccczcc"
         inkscape:transform-center-x="-0.75757097"
         inkscape:transform-center-y="6.5031739" />
      <path
         style="fill:#46394a;fill-opacity:1;stroke:none;stroke-width:0.264583px;stroke-linecap:butt;stroke-linejoin:miter;stroke-opacity:1"
         d="m 130.62445,221.32812 c -0.4962,1.33802 -0.72349,4.63975 -0.39201,7.08218 -0.89252,0.0894 -1.83112,3.14471 0.68987,3.00777 2.52099,-0.13694 1.06563,-3.09718 0.22057,-2.99602 -0.47271,-2.10752 -0.27042,-4.54382 -0.0253,-6.73986 z"
         id="path18253"
         sodipodi:nodetypes="cczccc" />
      <path
         style="fill:#46394a;fill-opacity:1;stroke:none;stroke-width:0.264583px;stroke-linecap:butt;stroke-linejoin:miter;stroke-opacity:1"
         d="m 157.6203,227.90029 0.90309,-0.0894 c -0.26527,1.3442 0.14408,3.34055 0.44707,5.4543 1.62179,0.19549 1.9602,2.98016 -0.13408,3.03116 -2.09428,0.051 -2.04576,-2.54185 -0.76896,-2.97751 -0.12344,-1.97992 -0.71278,-3.49998 -0.44712,-5.41855 z"
         id="path20914"
         sodipodi:nodetypes="ccczcc" />
      <path
         style="fill:#443846;fill-opacity:1;stroke:none;stroke-width:0.264583px;stroke-linecap:butt;stroke-linejoin:miter;stroke-opacity:1"
         d="m 115.52818,204.14739 c 6.6248,-9.66872 10.8315,-21.02811 11.94147,-31.46965 3.34068,-1.85061 6.80348,-2.72427 10.31194,-3.23268 -1.06644,15.18246 -7.57833,31.74334 -16.74218,43.79016 -3.63702,-4.42181 -4.00849,-5.92665 -5.51123,-9.08783 z"
         id="path22032"
         sodipodi:nodetypes="ccccc" />
      <path
         style="fill:#483748;fill-opacity:1;stroke:none;stroke-width:0.264583px;stroke-linecap:butt;stroke-linejoin:miter;stroke-opacity:1"
         d="m 146.91139,168.8128 c 3.18053,0.12003 6.31761,0.40143 9.33213,1.13807 0.24789,21.01094 -7.46492,39.48573 -19.52412,54.47532 -3.08931,-1.3848 -6.12642,-2.84418 -8.75044,-4.89368 13.09291,-14.38874 18.94554,-33.58748 18.94243,-50.71971 z"
         id="path23378"
         sodipodi:nodetypes="ccccc" />
      <path
         style="fill:#453947;fill-opacity:1;stroke:none;stroke-width:0.264583px;stroke-linecap:butt;stroke-linejoin:miter;stroke-opacity:1"
         d="m 172.92811,223.39378 c 6.50496,-10.59715 9.61577,-22.53037 10.50252,-32.79354 1.35204,3.61368 2.90147,7.42961 3.11068,11.31757 l 10.72309,11.33006 -15.67999,3.64181 c -2.64531,2.38632 -5.28724,4.77573 -8.6563,6.5041 z"
         id="path24002"
         sodipodi:nodetypes="cccccc" />
      <path
         style="fill:#453947;fill-opacity:1;stroke:none;stroke-width:0.264583px;stroke-linecap:butt;stroke-linejoin:miter;stroke-opacity:1"
         d="m 146.24675,227.22073 c 4.09221,0.70086 8.18443,1.03243 12.27664,0.59016 11.68042,-15.55872 15.26545,-31.59589 16.76526,-48.33762 -3.27393,-3.0412 -6.68176,-5.01121 -10.15751,-6.43787 0.30889,21.5869 -6.81925,38.90335 -18.88439,54.18533 z"
         id="path24626"
         sodipodi:nodetypes="ccccc" />
      <path
         style="fill:#8ce5f5;fill-opacity:1;stroke:none;stroke-width:0.264583px;stroke-linecap:butt;stroke-linejoin:miter;stroke-opacity:1"
         d="m 141.63295,168.85079 c -2.9247,-1.17981 -12.14908,-11.3779 -17.60667,-21.20439 -5.45759,-9.82649 -6.77087,-27.54467 6.91322,-30.86587 25.32705,-6.147 25.81877,20.2182 24.22364,29.43032 -1.69303,8.41266 -3.56221,16.58412 -7.47384,22.60195 z"
         id="path25349"
         sodipodi:nodetypes="czsccc" />
      <path
         style="fill:#4ecdde;fill-opacity:1;stroke:none;stroke-width:0.264583px;stroke-linecap:butt;stroke-linejoin:miter;stroke-opacity:1"
         d="m 147.6893,168.8128 0.64975,0.0201 c 5.6001,-8.51953 7.83261,-16.36871 8.06521,-25.0719 l -1.14309,1.84719 c -1.59993,7.63327 -2.19922,12.85798 -7.57187,23.20461 z"
         id="path26619"
         sodipodi:nodetypes="ccccc" />
      <path
         style="fill:#8ce5f5;fill-opacity:1;stroke:none;stroke-width:0.264583px;stroke-linecap:butt;stroke-linejoin:miter;stroke-opacity:1"
         d="m 156.40426,143.761 c 3.42416,-6.8845 15.40631,-18.00652 25.71103,-14.10754 4.33239,1.63924 10.07603,5.4036 12.01311,14.10754 1.65701,7.44549 -0.84861,11.4236 -5.8544,16.75439 -6.48342,6.90435 -17.70747,9.4894 -28.36139,10.36694 -3.79968,-1.14856 -7.67325,-1.70596 -11.57356,-2.04943 4.69682,-7.8552 7.68039,-16.13871 8.06521,-25.0719 z"
         id="path27205"
         sodipodi:nodetypes="csssccc" />
      <path
         style="fill:#413946;fill-opacity:1;stroke:none;stroke-width:0.264583px;stroke-linecap:butt;stroke-linejoin:miter;stroke-opacity:1"
         d="m 86.088206,170.35551 c 0.05606,-1.21625 -0.829068,-2.27564 -1.542709,-3.36361 0.901131,0.48399 2.079775,1.48095 2.47845,2.98425 z"
         id="path29315"
         sodipodi:nodetypes="cccc" />
      <path
         style="fill:#413946;fill-opacity:1;stroke:none;stroke-width:0.264583px;stroke-linecap:butt;stroke-linejoin:miter;stroke-opacity:1"
         d="m 87.934153,169.81189 c 0.195189,-1.20179 -0.183234,-2.00165 -0.767379,-3.16429 0.839672,0.58415 1.415674,1.60856 1.639295,3.14766 z"
         id="path29315-0"
         sodipodi:nodetypes="cccc"
         inkscape:transform-center-x="0.16294597"
         inkscape:transform-center-y="-1.7464169" />
      <path
         style="fill:#413946;fill-opacity:1;stroke:none;stroke-width:0.264583px;stroke-linecap:butt;stroke-linejoin:miter;stroke-opacity:1"
         d="m 90.085386,170.02871 c 0.214473,-1.18148 -0.01,-1.72903 -0.447339,-2.95446 0.976392,0.6826 0.961216,1.64972 1.135897,3.36665 z"
         id="path29315-0-2"
         sodipodi:nodetypes="cccc"
         inkscape:transform-center-x="-0.27080135"
         inkscape:transform-center-y="-1.6265092" />
      <path
         style="fill:#443945;fill-opacity:1;stroke:none;stroke-width:0.264583px;stroke-linecap:butt;stroke-linejoin:miter;stroke-opacity:1"
         d="m 108.23934,176.12167 c 0.60478,-1.05672 1.91998,-1.47634 3.10572,-2.01205 -1.02015,-0.0746 -2.54961,0.13493 -3.69217,1.1901 z"
         id="path29315-1"
         sodipodi:nodetypes="cccc"
         inkscape:transform-center-x="-5.2222357"
         inkscape:transform-center-y="1.1941008" />
      <path
         style="fill:#443945;fill-opacity:1;stroke:none;stroke-width:0.264583px;stroke-linecap:butt;stroke-linejoin:miter;stroke-opacity:1"
         d="m 106.92207,174.82477 c 0.47962,-1.11909 1.22793,-1.59134 2.34439,-2.25952 -1.02198,0.0429 -2.05745,0.59873 -3.07145,1.77798 z"
         id="path29315-0-6"
         sodipodi:nodetypes="cccc"
         inkscape:transform-center-x="-3.5045757"
         inkscape:transform-center-y="-0.3714655" />
      <path
         style="fill:#443945;fill-opacity:1;stroke:none;stroke-width:0.264583px;stroke-linecap:butt;stroke-linejoin:miter;stroke-opacity:1"
         d="m 105.11641,173.82905 c 0.45246,-1.11229 0.93552,-1.45412 1.96173,-2.25401 -1.19017,0.0527 -1.69592,0.87714 -2.76395,2.23274 z"
         id="path29315-0-2-5"
         sodipodi:nodetypes="cccc"
         inkscape:transform-center-x="-1.3435557"
         inkscape:transform-center-y="-1.3391405" />
      <path
         style="fill:#fffbff;fill-opacity:1;stroke:none;stroke-width:0.0547358px;stroke-linecap:butt;stroke-linejoin:miter;stroke-opacity:1"
         d="m 105.40778,176.82537 c 0.59908,-1.27212 2.40176,-0.43659 1.90443,0.85281 -0.49733,1.28942 -2.5035,0.41933 -1.90443,-0.85281 z"
         id="path8243-0-8"
         sodipodi:nodetypes="zzz" />
      <path
         style="fill:#453947;fill-opacity:1;stroke:none;stroke-width:0.264583px;stroke-linecap:butt;stroke-linejoin:miter;stroke-opacity:1"
         d="m 94.017716,132.94816 c -8.388383,-0.6646 -5.898896,-7.81185 -2.970552,-8.59453 6.470484,-1.72943 7.104466,5.07801 4.246713,7.86407 5.207223,8.6241 2.46568,16.9938 1.036903,25.49263 -0.738493,0.21559 -0.739417,0.21454 -1.441546,-0.30349 3.292533,-13.22736 2.507573,-20.8459 -0.871518,-24.45868 z"
         id="path54"
         sodipodi:nodetypes="cscccc" />
      <path
         style="fill:#453947;fill-opacity:1;stroke:none;stroke-width:0.264583px;stroke-linecap:butt;stroke-linejoin:miter;stroke-opacity:1"
         d="m 106.32045,160.23939 c 2.36544,-8.35565 6.42358,-18.43855 13.75793,-21.1427 -2.75385,-3.99027 4.65373,-10.29827 7.54519,-4.32539 3.15801,6.52352 -5.80526,7.66444 -6.78648,5.37493 -3.51947,0.86997 -9.78268,7.25699 -13.30903,20.33342 -0.64432,0.12251 -0.78236,0.1387 -1.20761,-0.24026 z"
         id="path56"
         sodipodi:nodetypes="ccsccc" />
    </g>
    <path
       style="fill:#f2f2f2;stroke:#4d4d4d;stroke-width:1.06527;stroke-linecap:butt;stroke-linejoin:miter;stroke-miterlimit:4;stroke-dasharray:none;stroke-opacity:1"
       d="m 468.03177,17.128688 c 80.28467,9.180048 160.56931,8.610204 240.854,-0.59989 85.52662,-2.391821 192.76823,-22.7546969 248.65783,-0.619317 3.26232,44.501073 4.81285,89.002129 1.2192,133.503199 -84.42974,-17.57442 -170.94604,-9.06653 -257.63525,1.6022 -72.34782,7.03338 -147.58161,10.39372 -232.48618,1.44581 10.27021,-55.584075 10.95286,-109.339588 -0.6096,-135.332002 z"
       id="path125"
       sodipodi:nodetypes="ccccccc" />
    <path
       style="fill:none;stroke:#000000;stroke-width:0.648922;stroke-linecap:butt;stroke-linejoin:miter;stroke-miterlimit:4;stroke-dasharray:none;stroke-opacity:1"
       d="M 468.03177,17.128688 406.04799,78.395015 139.02312,80.17975 406.04029,78.406774 468.64137,152.46069 406.04029,78.406774 Z"
       id="path2755"
       sodipodi:nodetypes="ccccccc" />
  </g>
</svg>
